<?xml version="1.0" encoding="iso-8859-1"?>
<!-- Generator: Adobe Illustrator 22.1.0, SVG Export Plug-In . SVG Version: 6.00 Build 0)  -->
<svg version="1.1" id="Layer_1" xmlns="http://www.w3.org/2000/svg" xmlns:xlink="http://www.w3.org/1999/xlink" x="0px" y="0px"
	 viewBox="0 0 50 50" style="enable-background:new 0 0 50 50;" xml:space="preserve">
<g id="Layer_1_1_">
	<path d="M40,7c0-3.309-2.691-6-6-6h-4c-2.086,0-3.924,1.071-5,2.69C23.924,2.07,22.086,1,20,1h-4c-3.309,0-6,2.691-6,6
		c0,1.538,0.586,2.937,1.54,4H1v12h2v26h17h2h6h2h17V23h2V11H38.46C39.414,9.937,40,8.538,40,7z M30,3h4c2.206,0,4,1.794,4,4
		s-1.794,4-4,4h-4h-2h-2V7C26,4.794,27.794,3,30,3z M12,7c0-2.206,1.794-4,4-4h4c2.206,0,4,1.794,4,4v4h-2h-2h-4
		C13.794,11,12,9.206,12,7z M3,13h13h4v8H3V13z M20,47H5V23h15V47z M28,47h-6V23v-2v-8h2h2h2v8v2V47z M45,47H30V23h15V47z M47,21H30
		v-8h4h13V21z"/>
</g>
</svg>
